<?xml version="1.0" encoding="UTF-8" standalone="no"?>
<svg width="28px" height="76px" viewBox="0 0 28 76" version="1.1" xmlns="http://www.w3.org/2000/svg" xmlns:xlink="http://www.w3.org/1999/xlink" xmlns:sketch="http://www.bohemiancoding.com/sketch/ns">
    <!-- Generator: Sketch Beta 3.3 (11855) - http://www.bohemiancoding.com/sketch -->
    <title>resume</title>
    <desc>Created with Sketch Beta.</desc>
    <defs></defs>
    <g id="Page-1" stroke="none" stroke-width="1" fill="none" fill-rule="evenodd" sketch:type="MSPage">
        <g id="desktop1440" sketch:type="MSArtboardGroup" transform="translate(-124.000000, -57.000000)" fill="#B4B5B4" opacity="0.536322295">
            <g id="header" sketch:type="MSLayerGroup">
                <g id="logo" transform="translate(106.000000, 50.000000)" sketch:type="MSShapeGroup">
                    <g id="logo-hover-1-single-color" transform="translate(14.000000, 0.000000)">
                        <g id="Group" transform="translate(4.000000, 7.000000)">
                            <path d="M0,0 L7,0 L7,7 L0,7 L0,0 Z M25,4 L28,4 L28,7 L25,7 L25,4 Z M0,14 L11,14 L11,16 L0,16 L0,14 Z M0,20 L28,20 L28,22 L0,22 L0,20 Z M0,24 L28,24 L28,26 L0,26 L0,24 Z M0,28 L22,28 L22,30 L0,30 L0,28 Z M0,38 L14,38 L14,40 L0,40 L0,38 Z M0,44 L28,44 L28,46 L0,46 L0,44 Z M0,48 L28,48 L28,50 L0,50 L0,48 Z M0,52 L9,52 L9,54 L0,54 L0,52 Z M0,66 L2,66 L2,68 L0,68 L0,66 Z M0,70 L2,70 L2,72 L0,72 L0,70 Z M0,74 L2,74 L2,76 L0,76 L0,74 Z M0,62 L2,62 L2,64 L0,64 L0,62 Z M4,66 L22,66 L22,68 L4,68 L4,66 Z M4,70 L18,70 L18,72 L4,72 L4,70 Z M4,74 L28,74 L28,76 L4,76 L4,74 Z M4,62 L19,62 L19,64 L4,64 L4,62 Z M20,4 L23,4 L23,7 L20,7 L20,4 Z" id="resume"></path>
                        </g>
                    </g>
                </g>
            </g>
        </g>
    </g>
</svg>